<svg id="Layer_1" data-name="Layer 1" xmlns="http://www.w3.org/2000/svg" xmlns:xlink="http://www.w3.org/1999/xlink" viewBox="0 0 1000 1000"><defs><style>.cls-1{fill:url(#linear-gradient);}.cls-2{fill:url(#linear-gradient-2);}</style><linearGradient id="linear-gradient" x1="535.72" y1="238.79" x2="564.28" y2="238.79" gradientUnits="userSpaceOnUse"><stop offset="0.24" stop-color="#e30613"/><stop offset="0.8" stop-color="#71247d"/><stop offset="0.89" stop-color="#662483"/></linearGradient><linearGradient id="linear-gradient-2" x1="64.82" y1="499.84" x2="935" y2="499.84" xlink:href="#linear-gradient"/></defs><polygon class="cls-1" points="535.73 214.08 535.74 214.09 564.27 263.53 535.74 214.06 535.73 214.08"/><path class="cls-2" d="M930,731.78,913.88,703.2,889,660.13,660,262.93,573.42,113.42h0l-.82-1.15-.21-.37.21.27.82,1.25c57.16,5.38,110.18,23.6,157.39,51.35l24.44-33.55,24-33.54.41-.42a82.85,82.85,0,0,0-8.28-4.55,43.77,43.77,0,0,0-8.28-5A36.75,36.75,0,0,0,759,85.25c-.42-.41-.83-.41-1.25-.83a40.25,40.25,0,0,1-6.21-2.9A433.12,433.12,0,0,0,711.76,63.3c-5.39-2.07-10.77-3.73-16.15-5.8-11.19-4.14-22.78-7.87-34-11.18-6.21-1.66-12.42-2.9-18.22-4.56-12-2.9-24.44-5-36.45-7-5.79-.83-11.18-1.65-17-2.48a471.3,471.3,0,0,0-54.26-3.32c-259.68,0-470.91,211.23-470.91,470.92,0,91.12,26.51,176,71.24,248.09a460.32,460.32,0,0,0,31.33,44.53h0c2.27,2.85,4.4,5.82,6.75,8.62a.69.69,0,0,1,0-.13,411.94,411.94,0,0,0,31.47,34.37c7.75,7.75,16.29,14.86,24.74,22.07,3.29,2.8,6.27,5.8,9.63,8.58,11.6,9.11,23.61,18.22,36,26.51a469.2,469.2,0,0,0,519,0c12.42-8.29,24.85-17,36.45-26.51s23.19-19.88,34-30.65a413.06,413.06,0,0,0,31.89-34c2.07-2.9,4.56-5.8,6.63-9.11A402.46,402.46,0,0,0,935,748.35C934.59,742.55,933.34,736.75,930,731.78Zm-40.59,51.36c1,1.92,1.92,4.12,2.88,6.23-1-2.09-2.05-4.19-3-6.32-3.73-8.25-7.44-16.61-11.46-24.35C882,766.57,885.71,774.85,889.44,783.14ZM156.25,700.31c.48.89.8,1.87,1.28,2.76h0C157.05,702.18,156.73,701.2,156.25,700.31Zm181.22-41c3.55-2.5,7-5.24,10.64-7.51a5.8,5.8,0,0,1,1.66-1.24,19,19,0,0,1,2.9-1.66c.26-.2.56-.32.82-.51C348,651.84,342.76,655.64,337.47,659.35Zm-16.23,11.39a350.59,350.59,0,0,0-41.11,38.31,248.89,248.89,0,0,1,20.35-20.35A230.3,230.3,0,0,1,321.24,670.74Zm-36-23.25,1-1.76-1.12,2-36.35,63.19h0Zm-15.45,13.62c-6.29,5.95-12.14,12.31-18.1,18.57,6-6.3,11.78-12.66,18.12-18.72,5.79-5.39,10.76-11.19,17-16.16C280.77,649.9,275.52,655.71,269.82,661.11Zm456-8c.67.45,1.24.95,1.91,1.41-.68-.45-1.3-1-2-1.41C725.79,653.07,725.84,653.09,725.84,653.09Zm-127.43-51.3c1.46.29,3.05.46,4.42.77s2.35.71,3.61,1C603.76,603,601.11,602.3,598.41,601.79ZM648.61,615c.45.16,1,.23,1.44.39a30.62,30.62,0,0,0,4.55,1.66c3.34,1.28,6.54,2.72,9.75,4.1C659.13,619.05,654,616.86,648.61,615Zm53.13,23.59s.08,0,.08,0c1.46.8,2.73,1.73,4.16,2.56C704.54,640.33,703.19,639.39,701.74,638.59Zm48.15,32.08a3.36,3.36,0,0,0,.8.64c7,5.8,14.08,11.6,20.3,17.81,6.2,5.81,12,11.67,17.82,17.82a348.29,348.29,0,0,0-38.18-35.58A9.6,9.6,0,0,1,749.89,670.67Zm72.35,40.22,0-.06,0,.06Zm-34-62.37c3.77,3.29,7.54,6.6,11.3,10.36,2.46,2,4.75,4.76,7.15,7.15C800.74,660,794.68,654.08,788.26,648.52ZM606.54,336.79,784.19,644.71c-2.46-2-5.1-3.83-7.72-5.67-1.71-1.23-3.43-2.46-5.07-3.77a370.11,370.11,0,0,0-30.65-21.53,306.6,306.6,0,0,0-32.3-18.22.41.41,0,0,0-.42-.42c-52.18-25.68-110.58-40.59-172.3-40.59a377.5,377.5,0,0,0-95.25,12.43c-26.89,7-53,16.14-77.35,28.53l.09-.16-.11.07c-2,1-3.91,2.2-5.85,3.32-3.29,1.85-6.56,3.68-10,5.51-10.77,5.8-21.13,12.43-31.48,19-9.94,6.63-19.46,14.08-29,21.53h0l.37-.65,6.66-11.35,241.6-418.25.26-.46h0v0l28.58,49.29,42.25,73.31,56.09,97.27-56.09-97.16-42.28-73.24ZM397.19,625.19a356.82,356.82,0,0,0-32.56,16.59c4.6-2.66,9.25-5.36,13.72-7.75C384.5,631,390.71,627.93,397.19,625.19Zm306.75,63.1h-.05c-.17-.13-.37-.22-.55-.35C703.53,688.07,703.75,688.16,703.94,688.29Zm136.5,15.63c-.81-1-1.72-1.95-2.53-3,.84,1,1.83,2,2.66,3.08,4.55,5.8,9.52,11.18,13.67,17C850,715,845,709.66,840.44,703.92Zm-561.31,86,27.18-37.62,14.15-19.58-14.18,19.76Zm57.81-78.86,0,0,.19-.14c3.3-2.86,7-5.17,10.4-7.86a282.31,282.31,0,0,1,26.15-18.5c2.07-1.28,4.28-2.36,6.36-3.62-2,1.27-4.26,2.33-6.29,3.65A296.2,296.2,0,0,0,347.7,703.2a95.86,95.86,0,0,0-10.35,7.87Zm62.65-41.42.3-.18H671.33a3.14,3.14,0,0,0,.31.18h-272Zm331,38.72c1.08.9,2.29,1.6,3.35,2.52.07.07.16.11.23.18h.15c.48.41.84.94,1.32,1.36-.51-.44-1-.93-1.47-1.36h-.41C732.69,710.05,731.6,709.32,730.54,708.37Zm42.57,42.75c.35.43.81.76,1.15,1.19,2.77,3.45,5,7.34,7.56,10.92-2.58-3.52-4.83-7.39-7.52-10.74C773.92,752,773.49,751.6,773.11,751.12Zm87.13-21.23c6.32,9.19,12,18.74,17.54,28.7l-.09.13C872.33,748.81,866.42,739.26,860.24,729.89ZM511.32,98.56a35.33,35.33,0,0,1,3.05-2.12C513.28,97,512.35,97.87,511.32,98.56Zm24.41-7.44c-.72,0-1.43.21-2.15.24.74,0,1.33-.31,2.15-.31a44.13,44.13,0,0,1,11.76,1.73A46.62,46.62,0,0,0,535.73,91.12Zm-38.1,22.71,1.24-2.07.33-.49-.38.65-1.19,1.91L182.44,659.71C160.49,610.84,147.65,557,147.65,499.84,147.65,298.55,301.72,132.88,497.63,113.83ZM300.87,823.46c1.89-3.72,3.25-7.75,5.32-11.36-3.39-2.5-6.57-5.23-9.89-7.81,3.36,2.61,6.6,5.34,10,7.84,3.31-6.21,7.46-12.43,11.18-18.23a244.39,244.39,0,0,1,35.62-41.41,263.08,263.08,0,0,1,56.33-41.42A261.5,261.5,0,0,1,718,752.49a243.94,243.94,0,0,1,35.62,41.41c4.14,5.8,7.87,12,11.6,18.23,2.35-1.74,4.59-3.65,6.93-5.45-2.34,1.78-4.55,3.72-6.92,5.47v0c-64.61,47.63-143.72,75.79-229.46,75.79a384.09,384.09,0,0,1-229.45-75.79C304.19,815.7,302.76,819.75,300.87,823.46Zm475,11.83c2.29,5.11,5.13,9.91,7.11,15.19l-.07,0C781,845.28,778.15,840.4,775.9,835.29ZM554.07,112.64c-3.9-.11-7.8-.47-11.71-.47-2.07,0-4.14-.41-6.63-.41,2.32,0,4.51.25,6.8.3C546.41,112.13,550.21,112.49,554.07,112.64ZM135.73,656.12c-.18-.45-.27-.94-.45-1.39C135.46,655.18,135.55,655.67,135.73,656.12Zm-16.1-49.86c-.51-2-.68-4.1-1.17-6.11C119,602.16,119.12,604.27,119.63,606.26ZM308.4,863.51c66.26,41.4,143.69,65.83,227.33,65.83-83.61,0-161-24.28-227.17-65.73Zm402.22,28c.19-.08.39-.14.58-.23h0C711,891.38,710.8,891.44,710.62,891.52Zm183.7-97.8h0a1,1,0,0,0,.08.18Z"/></svg>